<?xml version="1.0" ?><svg width="30px" height="30px" id="Layer_1" style="enable-background:new -239 241 32 32;" version="1.1" viewBox="-239 241 32 32" xml:space="preserve" xmlns="http://www.w3.org/2000/svg" xmlns:xlink="http://www.w3.org/1999/xlink"><style type="text/css">
	.st0{fill:#55ADED;}
	.st1{fill:#FFFFFF;}
</style><circle class="st0" cx="-223" cy="257" id="XMLID_1_" r="15.1"/><g id="XMLID_6_"><path class="st1" d="M-222.8,254.5c0,0-4.2-0.2-6.4-3.1c0,0-0.8,2.1,0.7,4.1c0,0-0.5,0.3-1,0c0,0,0.4,2,2.2,2.5   c0,0-0.7,0.5-1.2,0.5c0,0,0.5,1.3,2.7,1.9c0,0-1.1,1.6-4,1.5c0,0,2.4,2.7,7.7,0.6c0,0,5.3-1.6,5.4-8.4l0-0.3c0,0,0.9-0.3,1.1-1.1   c0,0-0.3,0.1-1,0.2c0,0,0.2-0.9,1-1.4c0,0-1.4,0.1-1.7,0.5c0,0-0.7-0.8-1.7-1.1c0,0-0.9-0.2-2,0.1   C-221,250.9-223.4,251.8-222.8,254.5z"/></g></svg>
